# xmcd
#
# Track frame offsets: 
#        150
#        12539
#        26673
#        37870
#        50742
#        60881
#        73338
#        85243
#        96911
#        108396
#        118551
#        129603
#        142456
#        151931
#        162721
#        177216
#        189158
#        200355
#        210706
#        221907
#
# Disc length: 3124 seconds
#
# Revision: 0
# Processed by: cddbd v1.5.1PL0 Copyright (c) Steve Scherf et al.
# Submitted via: ExactAudioCopy v0.95a5
#
DISCID=2b0c3214
DTITLE=Various Artist - Honky Tonk Heros
DYEAR=1900
DGENRE=Country
TTITLE0=Hank Williams/Your Cheatin' Heart
TTITLE1=Lefty Frizzell/Always Late (With Your Kisses)
TTITLE2=Marty Robbing/Singing The Blues
TTITLE3=Johnny Cash/Folsom Prison Blues
TTITLE4=George Jones/Why Baby Why
TTITLE5=Hank Thompson/The Wild Side Of Life
TTITLE6=Don Gibson/I Can't Stop Loving You
TTITLE7=Ray Pierce/Crazy Arms
TTITLE8=Stonewall Jackson/Life To Go
TTITLE9=Johnny Horton/Honky Tonk Man
TTITLE10=Webb Pierce/There Stands The Glass
TTITLE11=Ernest Tubb/Walking The Floor Over You
TTITLE12=Willie Nelson/If You've Got The Money, I've Got The Time
TTITLE13=Jim Ed Brown/Pop A Top
TTITLE14=Moe Bandy/Hank Williams, You Wrote My Life
TTITLE15=Porter Wagoner/Misery Loves Company
TTITLE16=Charlie Walker/Pick Me Up On Your Way Down
TTITLE17=Billy Walker/Charlie's Shoes
TTITLE18=Buck Owens/Togeather Again
TTITLE19=Freddy Fender/Wasted Days And Wasted Nights
EXTD=
EXTT0=
EXTT1=
EXTT2=
EXTT3=
EXTT4=
EXTT5=
EXTT6=
EXTT7=
EXTT8=
EXTT9=
EXTT10=
EXTT11=
EXTT12=
EXTT13=
EXTT14=
EXTT15=
EXTT16=
EXTT17=
EXTT18=
EXTT19=
PLAYORDER=
